<?xml version="1.0" encoding="UTF-8" standalone="no"?>
<!DOCTYPE svg PUBLIC "-//W3C//DTD SVG 1.1//EN" "http://www.w3.org/Graphics/SVG/1.1/DTD/svg11.dtd">
<svg width="100%" height="100%" viewBox="0 0 255 57" version="1.1" xmlns="http://www.w3.org/2000/svg" xmlns:xlink="http://www.w3.org/1999/xlink" xml:space="preserve" xmlns:serif="http://www.serif.com/" style="fill-rule:evenodd;clip-rule:evenodd;stroke-linejoin:round;stroke-miterlimit:2;">
    <g transform="matrix(1,0,0,1,-48.4225,-550.696)">
        <g transform="matrix(1,0,0,1,-62.0155,180.303)">
            <g transform="matrix(0.414668,0,-1.47931e-18,0.36891,105.021,304.675)">
                <path d="M200.709,279.246L200.709,306.834L184.868,306.834L184.868,228.383L211.593,228.383C219.352,228.383 225.539,230.79 230.155,235.603C234.771,240.416 237.079,246.666 237.079,254.353C237.079,262.04 234.798,268.111 230.236,272.565C225.674,277.019 219.352,279.246 211.27,279.246L200.709,279.246ZM200.709,266.046L211.593,266.046C214.61,266.046 216.945,265.058 218.597,263.082C220.25,261.107 221.076,258.233 221.076,254.461C221.076,250.546 220.232,247.43 218.544,245.113C216.855,242.796 214.592,241.62 211.755,241.584L200.709,241.584L200.709,266.046Z" style="fill:rgb(93,93,93);fill-rule:nonzero;"/>
                <path d="M273.987,306.834C273.556,305.936 273.125,304.427 272.694,302.308C269.964,306.043 266.264,307.911 261.594,307.911C256.709,307.911 252.659,306.295 249.444,303.062C246.229,299.829 244.622,295.644 244.622,290.508C244.622,284.401 246.571,279.678 250.468,276.337C254.365,272.996 259.978,271.29 267.306,271.218L271.94,271.218L271.94,266.531C271.94,263.908 271.491,262.058 270.593,260.981C269.695,259.903 268.383,259.364 266.659,259.364C262.852,259.364 260.948,261.591 260.948,266.046L245.7,266.046C245.7,260.658 247.72,256.212 251.761,252.71C255.802,249.208 260.912,247.457 267.09,247.457C273.484,247.457 278.432,249.118 281.934,252.441C285.437,255.763 287.188,260.514 287.188,266.692L287.188,294.118C287.26,299.147 287.978,303.08 289.343,305.918L289.343,306.834L273.987,306.834ZM264.989,295.95C266.677,295.95 268.114,295.608 269.299,294.926C270.485,294.243 271.365,293.435 271.94,292.501L271.94,280.378L268.276,280.378C265.689,280.378 263.651,281.204 262.16,282.857C260.669,284.509 259.924,286.718 259.924,289.484C259.924,293.794 261.612,295.95 264.989,295.95Z" style="fill:rgb(93,93,93);fill-rule:nonzero;"/>
                <path d="M315.96,234.202L315.96,248.534L323.773,248.534L323.773,259.957L315.96,259.957L315.96,288.936C315.96,291.238 316.275,292.821 316.903,293.684C317.532,294.548 318.744,294.98 320.54,294.98C322.013,294.98 323.216,294.854 324.15,294.603L324.042,306.456C321.456,307.426 318.654,307.911 315.637,307.911C305.795,307.911 300.82,302.265 300.712,290.973L300.712,259.957L293.977,259.957L293.977,248.534L300.712,248.534L300.712,234.202L315.96,234.202Z" style="fill:rgb(93,93,93);fill-rule:nonzero;"/>
                <path d="M346.996,253.653C350.3,249.522 354.359,247.457 359.173,247.457C364.489,247.457 368.53,249.325 371.296,253.06C374.062,256.796 375.463,262.364 375.499,269.763L375.499,306.834L360.197,306.834L360.197,269.925C360.197,266.513 359.667,264.043 358.607,262.516C357.547,260.99 355.832,260.227 353.461,260.227C350.696,260.227 348.54,261.502 346.996,264.052L346.996,306.834L331.747,306.834L331.747,224.072L346.996,224.072L346.996,253.653Z" style="fill:rgb(93,93,93);fill-rule:nonzero;"/>
                <rect x="387.137" y="224.072" width="15.302" height="82.761" style="fill:rgb(93,93,93);fill-rule:nonzero;"/>
                <path d="M430.242,306.834L414.94,306.834L414.94,248.534L430.242,248.534L430.242,306.834ZM414.239,233.448C414.239,231.077 414.994,229.137 416.502,227.629C418.011,226.12 420.022,225.366 422.537,225.366C425.051,225.366 427.063,226.12 428.572,227.629C430.08,229.137 430.835,231.077 430.835,233.448C430.835,235.783 430.089,237.722 428.598,239.267C427.108,240.811 425.087,241.584 422.537,241.584C419.986,241.584 417.966,240.811 416.475,239.267C414.985,237.722 414.239,235.783 414.239,233.448Z" style="fill:rgb(93,93,93);fill-rule:nonzero;"/>
                <path d="M440.102,277.145C440.102,267.985 441.817,260.747 445.248,255.431C448.678,250.115 453.393,247.457 459.391,247.457C464.636,247.457 468.677,249.361 471.515,253.168L472.215,248.534L485.524,248.534L485.524,303.008C485.452,311.485 483.252,318.068 478.923,322.755C474.595,327.443 468.533,329.787 460.738,329.787C455.35,329.787 450.699,328.548 446.783,326.069L449.046,314.808C452.567,316.64 455.907,317.556 459.068,317.556C462.948,317.556 465.776,316.353 467.554,313.946C469.332,311.539 470.239,307.875 470.275,302.954C467.438,306.259 463.792,307.911 459.338,307.911C453.518,307.911 448.858,305.226 445.355,299.856C441.853,294.486 440.102,286.916 440.102,277.145ZM455.296,278.277C455.296,289.556 457.973,295.195 463.325,295.195C466.522,295.195 468.839,293.705 470.275,290.723L470.275,264.806C468.839,261.753 466.558,260.227 463.433,260.227C460.738,260.227 458.709,261.654 457.344,264.51C455.979,267.366 455.296,271.955 455.296,278.277Z" style="fill:rgb(93,93,93);fill-rule:nonzero;"/>
                <path d="M512.41,253.653C515.715,249.522 519.774,247.457 524.587,247.457C529.904,247.457 533.945,249.325 536.711,253.06C539.477,256.796 540.877,262.364 540.913,269.763L540.913,306.834L525.611,306.834L525.611,269.925C525.611,266.513 525.081,264.043 524.022,262.516C522.962,260.99 521.247,260.227 518.876,260.227C516.11,260.227 513.955,261.502 512.41,264.052L512.41,306.834L497.162,306.834L497.162,224.072L512.41,224.072L512.41,253.653Z" style="fill:rgb(93,93,93);fill-rule:nonzero;"/>
                <path d="M569.578,234.202L569.578,248.534L577.391,248.534L577.391,259.957L569.578,259.957L569.578,288.936C569.578,291.238 569.892,292.821 570.521,293.684C571.15,294.548 572.362,294.98 574.158,294.98C575.631,294.98 576.834,294.854 577.768,294.603L577.66,306.456C575.074,307.426 572.272,307.911 569.255,307.911C559.412,307.911 554.437,302.265 554.33,290.973L554.33,259.957L547.595,259.957L547.595,248.534L554.33,248.534L554.33,234.202L569.578,234.202Z" style="fill:rgb(93,93,93);fill-rule:nonzero;"/>
            </g>
        </g>
        <g transform="matrix(1,0,0,1,-62.0155,180.303)">
            <g transform="matrix(0.414668,0,-1.47931e-18,0.36891,105.021,304.675)">
                <g transform="matrix(2.16973,0,7.74041e-18,2.16973,-59.8336,-453.74)">
                    <path d="M133.861,317.933C134.047,318.101 134.227,318.276 134.402,318.459C136.529,320.678 137.593,323.558 137.593,327.101C137.593,330.644 136.542,333.442 134.439,335.495C132.337,337.547 129.423,338.574 125.698,338.574L120.831,338.574L120.831,351.288L113.53,351.288L113.53,350.538L120.08,350.538L120.08,337.824L124.948,337.824C128.673,337.824 131.586,336.797 133.689,334.744C135.791,332.691 136.843,329.894 136.843,326.351C136.843,322.926 135.849,320.12 133.861,317.933ZM120.831,331.739L120.831,321.216L125.922,321.216C126.803,321.227 127.564,321.477 128.204,321.965C127.437,320.981 126.426,320.481 125.171,320.465L120.08,320.465L120.08,331.739L120.831,331.739Z" style="fill:rgb(181,181,181);fill-rule:nonzero;"/>
                </g>
                <g transform="matrix(2.16973,0,7.74041e-18,2.16973,-59.8336,-453.74)">
                    <path d="M142.948,349.181C144.36,350.417 146.091,351.035 148.142,351.035C150.294,351.035 151.999,350.174 153.257,348.452C153.361,348.961 153.464,349.393 153.568,349.749C152.362,351.106 150.803,351.785 148.892,351.785C146.641,351.785 144.774,351.04 143.292,349.55C143.173,349.43 143.058,349.307 142.948,349.181ZM158.01,325.988C158.098,326.063 158.183,326.14 158.267,326.219C159.881,327.751 160.688,329.94 160.688,332.788L160.688,345.428C160.721,347.746 161.052,349.558 161.681,350.866L161.681,351.288L154.604,351.288C154.512,351.098 154.421,350.848 154.329,350.538L160.931,350.538L160.931,350.116C160.302,348.808 159.97,346.995 159.937,344.677L159.937,332.037C159.937,329.497 159.295,327.481 158.01,325.988ZM152.91,339.095L152.91,338.345L151.221,338.345C150.029,338.345 149.09,338.726 148.402,339.487C147.715,340.249 147.372,341.267 147.372,342.542C147.372,343.941 147.758,344.847 148.529,345.261C148.258,344.778 148.122,344.121 148.122,343.292C148.122,342.017 148.466,340.999 149.153,340.238C149.84,339.476 150.779,339.095 151.971,339.095L152.91,339.095ZM141.596,331.739L147.844,331.739C147.844,329.687 148.721,328.66 150.476,328.66C151.271,328.66 151.875,328.908 152.289,329.405C152.361,329.492 152.427,329.589 152.487,329.698C152.14,329.506 151.72,329.41 151.226,329.41C149.472,329.41 148.594,330.437 148.594,332.49L141.566,332.49C141.566,332.235 141.576,331.985 141.596,331.739Z" style="fill:rgb(181,181,181);fill-rule:nonzero;"/>
                </g>
                <g transform="matrix(2.16973,0,7.74041e-18,2.16973,-59.8336,-453.74)">
                    <path d="M176.965,345.784C177.25,345.755 177.503,345.711 177.723,345.651L177.674,351.115C176.482,351.562 175.19,351.785 173.8,351.785C171.443,351.785 169.693,351.083 168.547,349.679C169.658,350.583 171.159,351.035 173.049,351.035C174.44,351.035 175.731,350.811 176.923,350.364L176.965,345.784ZM176.799,324.419L177.549,324.419L177.549,329.684L173.949,329.684L173.949,343.04C173.949,343.857 174.035,344.478 174.207,344.902C173.958,344.803 173.767,344.662 173.633,344.478C173.343,344.08 173.198,343.35 173.198,342.289L173.198,328.933L176.799,328.933L176.799,324.419ZM166.17,329.684L163.817,329.684L163.817,328.933L166.17,328.933L166.17,329.684ZM173.198,323.669L173.198,317.813L173.949,317.813L173.949,323.669L173.198,323.669Z" style="fill:rgb(181,181,181);fill-rule:nonzero;"/>
                </g>
                <g transform="matrix(2.16973,0,7.74041e-18,2.16973,-59.8336,-453.74)">
                    <path d="M198.432,325.413C198.806,325.728 199.146,326.091 199.452,326.505C200.727,328.227 201.372,330.793 201.389,334.203L201.389,351.288L194.336,351.288L194.336,350.538L200.639,350.538L200.639,333.453C200.622,330.043 199.976,327.476 198.702,325.755C198.614,325.637 198.525,325.523 198.432,325.413ZM181.225,350.538L187.502,350.538L187.502,330.821C188.214,329.645 189.207,329.057 190.482,329.057C191.575,329.057 192.365,329.409 192.854,330.113C192.877,330.147 192.9,330.181 192.922,330.217C192.476,329.944 191.913,329.808 191.232,329.808C189.958,329.808 188.964,330.396 188.252,331.571L188.252,351.288L181.225,351.288L181.225,350.538ZM188.252,325.194C187.994,325.448 187.743,325.726 187.502,326.028L187.502,313.145L188.252,313.145L188.252,325.194Z" style="fill:rgb(181,181,181);fill-rule:nonzero;"/>
                </g>
                <g transform="matrix(2.16973,0,7.74041e-18,2.16973,-59.8336,-453.74)">
                    <path d="M213.055,313.145L213.806,313.145L213.806,351.288L206.753,351.288L206.753,350.538L213.055,350.538L213.055,313.145Z" style="fill:rgb(181,181,181);fill-rule:nonzero;"/>
                </g>
                <g transform="matrix(2.16973,0,7.74041e-18,2.16973,-59.8336,-453.74)">
                    <path d="M225.869,324.419L226.619,324.419L226.619,351.288L219.567,351.288L219.567,350.538L225.869,350.538L225.869,324.419ZM225.451,314.442C225.591,314.544 225.724,314.658 225.85,314.784C226.545,315.479 226.893,316.373 226.893,317.466C226.893,318.542 226.549,319.436 225.862,320.148C225.175,320.86 224.244,321.216 223.068,321.216C221.893,321.216 220.962,320.86 220.275,320.148C220.16,320.03 220.056,319.906 219.961,319.778C220.589,320.236 221.375,320.465 222.318,320.465C223.493,320.465 224.425,320.109 225.112,319.397C225.799,318.686 226.142,317.792 226.142,316.715C226.142,315.826 225.912,315.068 225.451,314.442Z" style="fill:rgb(181,181,181);fill-rule:nonzero;"/>
                </g>
                <g transform="matrix(2.16973,0,7.74041e-18,2.16973,-59.8336,-453.74)">
                    <path d="M251.348,324.419L252.098,324.419L252.098,349.525C252.065,353.432 251.051,356.466 249.056,358.627C247.061,360.787 244.267,361.867 240.675,361.867C238.192,361.867 236.048,361.296 234.243,360.154L234.301,359.865C235.927,360.7 237.802,361.117 239.924,361.117C243.517,361.117 246.311,360.037 248.306,357.876C250.301,355.716 251.315,352.682 251.348,348.775L251.348,324.419ZM234.488,349.266C235.83,350.445 237.427,351.035 239.279,351.035C241.332,351.035 243.012,350.273 244.32,348.75C244.316,349.312 244.287,349.838 244.234,350.329C243.07,351.3 241.668,351.785 240.029,351.785C237.82,351.785 235.973,350.945 234.488,349.266ZM239.514,344.698C238.616,343.454 238.167,341.264 238.167,338.127C238.167,335.213 238.481,333.098 239.11,331.782C239.739,330.466 240.675,329.808 241.916,329.808C242.672,329.808 243.32,330.001 243.861,330.388C243.208,329.501 242.31,329.057 241.166,329.057C239.924,329.057 238.989,329.716 238.36,331.032C237.731,332.348 237.416,334.463 237.416,337.377C237.416,341.29 238.115,343.731 239.514,344.698ZM244.601,325.441C244.705,325.528 244.806,325.62 244.905,325.715L244.891,325.804C244.797,325.679 244.701,325.558 244.601,325.441Z" style="fill:rgb(181,181,181);fill-rule:nonzero;"/>
                </g>
                <g transform="matrix(2.16973,0,7.74041e-18,2.16973,-59.8336,-453.74)">
                    <path d="M274.669,325.413C275.043,325.728 275.383,326.091 275.689,326.505C276.964,328.227 277.61,330.793 277.626,334.203L277.626,351.288L270.574,351.288L270.574,350.538L276.876,350.538L276.876,333.453C276.859,330.043 276.214,327.476 274.939,325.755C274.852,325.637 274.762,325.523 274.669,325.413ZM257.462,350.538L263.739,350.538L263.739,330.821C264.451,329.645 265.444,329.057 266.719,329.057C267.812,329.057 268.602,329.409 269.091,330.113C269.114,330.147 269.137,330.181 269.159,330.217C268.713,329.944 268.15,329.808 267.47,329.808C266.195,329.808 265.202,330.396 264.49,331.571L264.49,351.288L257.462,351.288L257.462,350.538ZM264.49,325.194C264.231,325.448 263.981,325.726 263.739,326.028L263.739,313.145L264.49,313.145L264.49,325.194Z" style="fill:rgb(181,181,181);fill-rule:nonzero;"/>
                </g>
                <g transform="matrix(2.16973,0,7.74041e-18,2.16973,-59.8336,-453.74)">
                    <path d="M293.854,345.784C294.139,345.755 294.392,345.711 294.612,345.651L294.562,351.115C293.37,351.562 292.079,351.785 290.688,351.785C288.332,351.785 286.581,351.083 285.435,349.679C286.546,350.583 288.047,351.035 289.938,351.035C291.329,351.035 292.62,350.811 293.812,350.364L293.854,345.784ZM293.688,324.419L294.438,324.419L294.438,329.684L290.837,329.684L290.837,343.04C290.837,343.857 290.923,344.478 291.096,344.902C290.847,344.803 290.656,344.662 290.522,344.478C290.232,344.08 290.087,343.35 290.087,342.289L290.087,328.933L293.688,328.933L293.688,324.419ZM283.059,329.684L280.706,329.684L280.706,328.933L283.059,328.933L283.059,329.684ZM290.087,323.669L290.087,317.813L290.837,317.813L290.837,323.669L290.087,323.669Z" style="fill:rgb(181,181,181);fill-rule:nonzero;"/>
                </g>
            </g>
        </g>
        <g transform="matrix(1,0,0,1,-62.0155,180.303)">
            <g transform="matrix(-0.13837,-0.669779,2.4038,-0.496602,-831.365,750.142)">
                <path d="M199.424,408.479L205.893,420.204L191.791,506.02L150.3,506.26L189.427,420.322L199.424,408.479Z" style="fill:url(#_Radial1);"/>
            </g>
        </g>
        <g transform="matrix(1,0,0,1,-62.0155,180.303)">
            <g transform="matrix(0.396963,-0.00816324,0.00846991,0.411876,85.0484,290.632)">
                <ellipse cx="129.889" cy="319.577" rx="72.748" ry="4.169" style="fill:rgb(120,120,120);fill-opacity:0.57;"/>
            </g>
        </g>
        <g transform="matrix(1,0,0,1,-62.0155,180.303)">
            <g transform="matrix(0.014088,0.0981821,-0.0981821,0.014088,158.536,382.477)">
                <path d="M289.133,502.467L220.866,502.467C211.479,502.467 203.799,494.787 203.799,485.4L203.799,212.333L306.199,212.333L306.199,485.4C306.2,494.787 298.52,502.467 289.133,502.467" style="fill:rgb(255,242,160);fill-rule:nonzero;"/>
            </g>
        </g>
        <g transform="matrix(1,0,0,1,-62.0155,180.303)">
            <g transform="matrix(0.014088,0.0981821,-0.0981821,0.014088,158.536,382.477)">
                <path d="M203.8,485.4L203.8,212.333L186.733,212.333L186.733,485.4C186.733,494.787 194.413,502.467 203.8,502.467L220.867,502.467C211.48,502.467 203.8,494.787 203.8,485.4" style="fill:white;fill-rule:nonzero;"/>
            </g>
        </g>
        <g transform="matrix(1,0,0,1,-62.0155,180.303)">
            <g transform="matrix(0.014088,0.0981821,-0.0981821,0.014088,158.536,382.477)">
                <path d="M306.2,212.333L306.2,485.4C306.2,494.787 298.52,502.467 289.133,502.467L306.2,502.467C315.587,502.467 323.267,494.787 323.267,485.4L323.267,212.333L306.2,212.333Z" style="fill:rgb(255,221,9);fill-rule:nonzero;"/>
            </g>
        </g>
        <g transform="matrix(1,0,0,1,-62.0155,180.303)">
            <g transform="matrix(0.00633197,0.0441287,-0.0655258,0.00940222,148.656,397.953)">
                <path d="M220.867,280.6L220.867,348.867C220.867,367.64 236.303,384.14 255,383C286.927,381.054 289.133,367.64 289.133,348.867L289.133,280.6" style="fill:rgb(216,199,95);fill-rule:nonzero;"/>
            </g>
        </g>
        <g transform="matrix(1,0,0,1,-62.0155,180.303)">
            <g transform="matrix(0.00602203,0.0419686,-0.0419686,0.00602203,142.343,399.45)">
                <path d="M289.133,280.6C289.133,261.827 273.773,246.467 255,246.467C236.227,246.467 220.867,261.827 220.867,280.6C220.867,299.373 236.227,314.733 255,314.733C273.773,314.733 289.133,299.373 289.133,280.6" style="fill:rgb(255,221,9);fill-rule:nonzero;"/>
            </g>
        </g>
        <g transform="matrix(1,0,0,1,-62.0155,180.303)">
            <g transform="matrix(0.014088,0.0981821,-0.0981821,0.014088,158.536,382.477)">
                <path d="M331.801,109.933L178.2,109.933L178.2,24.6C178.2,15.213 185.88,7.533 195.267,7.533L314.734,7.533C324.121,7.533 331.801,15.213 331.801,24.6L331.801,109.933Z" style="fill:rgb(255,242,160);fill-rule:nonzero;"/>
            </g>
        </g>
        <g transform="matrix(1,0,0,1,-62.0155,180.303)">
            <g transform="matrix(0.014088,0.0981821,-0.0981821,0.014088,158.536,382.477)">
                <path d="M195.267,7.533L169.667,7.533C160.28,7.533 152.6,15.213 152.6,24.6L152.6,109.933L178.2,109.933L178.2,24.6C178.2,15.213 185.88,7.533 195.267,7.533" style="fill:white;fill-rule:nonzero;"/>
            </g>
        </g>
        <g transform="matrix(1,0,0,1,-62.0155,180.303)">
            <g transform="matrix(0.014088,0.0981821,-0.0981821,0.014088,158.536,382.477)">
                <path d="M340.333,7.533L314.733,7.533C324.12,7.533 331.8,15.213 331.8,24.6L331.8,109.933L357.4,109.933L357.4,24.6C357.4,15.213 349.72,7.533 340.333,7.533" style="fill:rgb(255,221,9);fill-rule:nonzero;"/>
            </g>
        </g>
        <g transform="matrix(1,0,0,1,-62.0155,180.303)">
            <g transform="matrix(0.014088,0.0981821,-0.0981821,0.014088,158.536,382.477)">
                <path d="M331.8,109.933C331.8,166.253 328.387,182.466 306.2,212.333L203.8,212.333C181.613,182.466 178.2,166.253 178.2,109.933L331.8,109.933Z" style="fill:rgb(255,242,160);fill-rule:nonzero;"/>
            </g>
        </g>
        <g transform="matrix(1,0,0,1,-62.0155,180.303)">
            <g transform="matrix(0.014088,0.0981821,-0.0981821,0.014088,158.536,382.477)">
                <path d="M323.267,212.333C353.134,182.466 357.4,166.253 357.4,109.933L331.8,109.933C331.8,166.253 328.387,182.466 306.2,212.333" style="fill:rgb(255,221,9);fill-rule:nonzero;"/>
            </g>
        </g>
        <g transform="matrix(1,0,0,1,-62.0155,180.303)">
            <g transform="matrix(0.014088,0.0981821,-0.0981821,0.014088,158.536,382.477)">
                <path d="M203.8,212.333C181.613,182.466 178.2,166.253 178.2,109.933L152.6,109.933C152.6,166.253 156.867,182.466 186.733,212.333" style="fill:white;fill-rule:nonzero;"/>
            </g>
        </g>
        <g transform="matrix(1,0,0,1,-62.0155,180.303)">
            <g transform="matrix(0.652445,0,0,0.652445,84.5929,271.43)">
                <path d="M72.504,212.685L72.529,212.686L72.554,212.684C73.933,212.555 75.144,213.509 75.333,214.896C75.527,216.322 74.559,217.594 73.134,217.788L72.929,217.809L64.747,219.042C63.323,219.238 62.05,218.272 61.853,216.848C61.657,215.423 62.622,214.149 64.047,213.952L72.436,212.688C72.46,212.685 72.482,212.684 72.504,212.685ZM70.242,215.589L70.229,215.478C70.178,214.939 70.292,214.425 70.533,213.988L70.983,213.352L64.107,214.422C62.934,214.586 62.16,215.608 62.322,216.783C62.484,217.96 63.508,218.735 64.684,218.573L71.515,217.511L70.943,217.047C70.574,216.666 70.32,216.165 70.242,215.589L70.242,215.589ZM73.125,217.306L73.158,217.306L73.19,217.299C74.299,217.087 75.018,216.096 74.864,214.96C74.704,213.783 73.681,213.006 72.505,213.166C71.328,213.326 70.551,214.348 70.711,215.525L70.714,215.548C70.889,216.708 71.905,217.47 73.072,217.309C73.09,217.307 73.108,217.306 73.125,217.306Z" style="fill:rgb(92,84,84);fill-rule:nonzero;"/>
            </g>
        </g>
        <g transform="matrix(1,0,0,1,-62.0155,180.303)">
            <g transform="matrix(1,0,0,1,60.7532,196.404)">
                <path d="M89.061,202.058C89.061,202.058 97.439,200.856 97.439,200.856C98.698,200.675 99.799,201.5 99.98,202.759C99.98,202.759 102.384,219.516 102.384,219.516C102.565,220.775 101.74,221.876 100.481,222.056L92.103,223.258C92.099,223.259 92.095,223.26 92.09,223.26C86.767,224.023 84.793,223.913 81.335,221.366L54.755,225.179C53.506,225.359 52.413,224.541 52.234,223.291L50.791,213.237C50.612,211.988 51.43,210.895 52.68,210.716L79.26,206.902C81.798,203.573 83.731,202.823 89.061,202.058ZM79.125,208.213C79.066,208.099 78.941,208.029 78.807,208.047L52.832,211.541C52.549,211.581 52.311,211.739 52.138,211.966C51.905,212.271 51.795,212.704 51.85,213.085C51.85,213.085 53.292,223.139 53.292,223.139C53.342,223.482 53.503,223.748 53.732,223.919C53.96,224.09 54.261,224.17 54.603,224.121C54.603,224.121 80.576,220.394 80.576,220.394C80.711,220.375 80.813,220.272 80.838,220.146L79.125,208.213ZM88.713,203.521C88.702,203.442 88.659,203.372 88.596,203.325C88.532,203.278 88.452,203.259 88.374,203.272C83.668,204.035 82.289,204.771 80.22,207.432C80.17,207.496 80.149,207.576 80.16,207.655L81.988,220.39C81.999,220.467 82.04,220.537 82.103,220.584C84.853,222.644 86.384,222.964 91.108,222.286C91.269,222.263 91.381,222.114 91.358,221.953L88.713,203.521ZM98.185,221.27L100.324,220.964C100.662,220.915 100.924,220.756 101.092,220.531C101.261,220.306 101.34,220.01 101.291,219.672C101.291,219.672 98.887,202.916 98.887,202.916C98.846,202.633 98.67,202.366 98.428,202.184C98.185,202.002 97.879,201.908 97.596,201.949L95.457,202.255L95.859,205.06C95.876,205.175 95.862,205.278 95.805,205.354C95.748,205.43 95.653,205.473 95.538,205.489C95.424,205.505 95.321,205.491 95.245,205.434C95.169,205.377 95.126,205.282 95.11,205.168L94.707,202.363L90.055,203.031C89.902,203.053 89.792,203.189 89.803,203.343C89.804,203.35 89.805,203.357 89.806,203.364L92.45,221.796C92.473,221.957 92.623,222.069 92.784,222.045L97.436,221.378L97.033,218.573C97.017,218.459 97.031,218.356 97.088,218.279C97.145,218.203 97.24,218.161 97.354,218.144C97.469,218.128 97.572,218.142 97.648,218.199C97.724,218.256 97.767,218.351 97.783,218.466L98.185,221.27ZM96.552,215.222L95.591,208.519C95.564,208.332 95.687,208.123 95.912,208.091C96.026,208.074 96.129,208.088 96.205,208.145C96.282,208.202 96.324,208.297 96.34,208.412C96.34,208.412 97.302,215.114 97.302,215.114C97.318,215.229 97.305,215.332 97.247,215.408C97.19,215.484 97.095,215.526 96.981,215.543C96.867,215.559 96.764,215.545 96.687,215.488C96.611,215.431 96.569,215.336 96.552,215.222Z" style="fill:rgb(93,93,93);fill-rule:nonzero;"/>
            </g>
        </g>
    </g>
    <defs>
        <radialGradient id="_Radial1" cx="0" cy="0" r="1" gradientUnits="userSpaceOnUse" gradientTransform="matrix(102.99,0,0,102.99,147.929,459.974)"><stop offset="0" style="stop-color:white;stop-opacity:0.29"/><stop offset="0" style="stop-color:rgb(246,246,246);stop-opacity:0"/><stop offset="0.32" style="stop-color:rgb(233,233,232);stop-opacity:0.22"/><stop offset="0.57" style="stop-color:rgb(231,231,230);stop-opacity:0.07"/><stop offset="1" style="stop-color:rgb(230,230,229);stop-opacity:0"/></radialGradient>
    </defs>
</svg>
